<svg xmlns="http://www.w3.org/2000/svg" xmlns:xlink="http://www.w3.org/1999/xlink" width="5000" zoomAndPan="magnify" viewBox="0 0 3750 3749.999967" height="5000" preserveAspectRatio="xMidYMid meet" version="1.0"><defs><clipPath id="39697eabe0"><path d="M 150 350 L 3600 350 L 3600 3400 L 150 3400 Z M 150 350 " clip-rule="nonzero"/></clipPath><clipPath id="12b9b9c11e"><path d="M 77.214844 478.59375 L 3527.171875 307.621094 L 3674.046875 3271.34375 L 224.089844 3442.316406 Z M 77.214844 478.59375 " clip-rule="nonzero"/></clipPath><clipPath id="fade7a5cf1"><path d="M 3599.347656 1789.546875 L 2810.613281 3314.132812 L 1086.261719 3399.589844 L 150.652344 1960.453125 L 939.390625 435.867188 L 2663.738281 350.410156 Z M 3599.347656 1789.546875 " clip-rule="nonzero"/></clipPath><clipPath id="595d5b9254"><path d="M 1875 1123.09375 L 2991.164062 1123.09375 L 2991.164062 2110 L 1875 2110 Z M 1875 1123.09375 " clip-rule="nonzero"/></clipPath></defs><g clip-path="url(#39697eabe0)"><g clip-path="url(#12b9b9c11e)"><g clip-path="url(#fade7a5cf1)"><path fill="#0a1357" d="M 77.214844 478.59375 L 3527.171875 307.621094 L 3674.046875 3271.34375 L 224.089844 3442.316406 Z M 77.214844 478.59375 " fill-opacity="1" fill-rule="nonzero"/></g></g></g><path fill="#cb6ce6" d="M 1509.871094 2338.75 L 1509.871094 2474.851562 L 893.476562 2188.488281 L 893.476562 2078.054688 L 1509.871094 1791.679688 L 1509.871094 1927.824219 L 1043.71875 2131.980469 L 1043.71875 2134.550781 Z M 1875.9375 1640.4375 L 845.136719 1640.4375 C 796.472656 1640.4375 757.023438 1679.886719 757.023438 1728.570312 L 757.023438 2537.988281 C 757.023438 2586.644531 796.472656 2626.097656 845.136719 2626.097656 L 1589.789062 2626.097656 L 1875.9375 1640.4375 " fill-opacity="1" fill-rule="nonzero"/><g clip-path="url(#595d5b9254)"><path fill="#0097b2" d="M 2856.730469 1675.453125 L 2240.355469 1957.964844 L 2240.355469 1821.824219 L 2716.765625 1617.664062 L 2716.765625 1615.09375 L 2240.355469 1410.894531 L 2240.355469 1274.792969 L 2856.730469 1557.304688 Z M 2162.113281 1123.550781 L 1875.9375 2109.210938 L 2905.078125 2109.210938 C 2953.742188 2109.210938 2993.195312 2069.757812 2993.195312 2021.074219 L 2993.195312 1211.65625 C 2993.195312 1163 2953.742188 1123.550781 2905.078125 1123.550781 L 2162.113281 1123.550781 " fill-opacity="1" fill-rule="nonzero"/></g></svg>