<svg xmlns="http://www.w3.org/2000/svg" xmlns:xlink="http://www.w3.org/1999/xlink" width="500" zoomAndPan="magnify" viewBox="0 0 375 374.999991" height="500" preserveAspectRatio="xMidYMid meet" version="1.0"><defs><clipPath id="721e9b9412"><path d="M 15 34 L 360 34 L 360 341 L 15 341 Z M 15 34 " clip-rule="nonzero"/></clipPath><clipPath id="4be2c6bbce"><path d="M 7.660156 47.8125 L 352.648438 30.714844 L 367.339844 327.1875 L 22.351562 344.285156 Z M 7.660156 47.8125 " clip-rule="nonzero"/></clipPath><clipPath id="bce1e03977"><path d="M 359.992188 178.953125 L 281.09375 331.460938 L 108.597656 340.011719 L 15.007812 196.046875 L 93.90625 43.539062 L 266.402344 34.988281 L 359.992188 178.953125 " clip-rule="nonzero"/></clipPath><clipPath id="c4cbabbe33"><path d="M 75.65625 164 L 188 164 L 188 263 L 75.65625 263 Z M 75.65625 164 " clip-rule="nonzero"/></clipPath><clipPath id="02c8ffe8d4"><path d="M 187 112.285156 L 299.15625 112.285156 L 299.15625 212 L 187 212 Z M 187 112.285156 " clip-rule="nonzero"/></clipPath></defs><rect x="-37.5" width="450" fill="#ffffff" y="-37.499999" height="449.999989" fill-opacity="1"/><rect x="-37.5" width="450" fill="#ffffff" y="-37.499999" height="449.999989" fill-opacity="1"/><rect x="-37.5" width="450" fill="#ffffff" y="-37.499999" height="449.999989" fill-opacity="1"/><g clip-path="url(#721e9b9412)"><g clip-path="url(#4be2c6bbce)"><g clip-path="url(#bce1e03977)"><path fill="#0a1357" d="M 7.660156 47.8125 L 352.648438 30.714844 L 367.339844 327.1875 L 22.351562 344.285156 Z M 7.660156 47.8125 " fill-opacity="1" fill-rule="nonzero"/></g></g></g><g clip-path="url(#c4cbabbe33)"><path fill="#cb6ce6" d="M 150.910156 234.15625 L 150.910156 247.800781 L 89.304688 219.09375 L 89.304688 208.019531 L 150.910156 179.3125 L 150.910156 192.960938 L 104.320312 213.425781 L 104.320312 213.683594 Z M 187.5 164.148438 L 84.472656 164.148438 C 79.605469 164.148438 75.664062 168.105469 75.664062 172.984375 L 75.664062 254.128906 C 75.664062 259.007812 79.605469 262.964844 84.472656 262.964844 L 158.898438 262.964844 L 187.5 164.148438 " fill-opacity="1" fill-rule="nonzero"/></g><g clip-path="url(#02c8ffe8d4)"><path fill="#0097b2" d="M 285.53125 167.660156 L 223.921875 195.980469 L 223.921875 182.332031 L 271.539062 161.867188 L 271.539062 161.609375 L 223.921875 141.136719 L 223.921875 127.492188 L 285.53125 155.8125 Z M 216.101562 112.328125 L 187.5 211.144531 L 290.363281 211.144531 C 295.226562 211.144531 299.171875 207.1875 299.171875 202.308594 L 299.171875 121.164062 C 299.171875 116.285156 295.226562 112.328125 290.363281 112.328125 L 216.101562 112.328125 " fill-opacity="1" fill-rule="nonzero"/></g></svg>